<svg width="123" height="28" viewBox="0 0 123 28" fill="none" xmlns="http://www.w3.org/2000/svg">
<g clip-path="url(#clip0_302_82)">
<path d="M117.691 6.98999L114.831 15.64L111.911 6.98999H106.371L112.091 21.82L109.841 27.57H115.111L123.001 6.98999H117.691Z" fill="white"/>
<path d="M27.1291 1.35999H21.7891V22.2H27.1291V1.35999Z" fill="white"/>
<path d="M34.6898 12.94C34.9298 11.89 35.7398 11.32 36.6598 11.32C37.8498 11.32 38.3998 12.23 38.3998 13.52V22.2H43.7098V12.94C43.9798 11.89 44.7598 11.32 45.6798 11.32C46.8698 11.32 47.4098 12.23 47.4098 13.52V22.2H52.7498V12.23C52.7498 8.82002 50.7798 6.65002 47.5798 6.65002C45.3298 6.65002 43.7698 7.53002 42.8498 8.47002C41.9298 7.39002 40.5698 6.65002 38.6298 6.65002C36.9298 6.65002 35.4698 7.29002 34.6798 8.24002V6.99002H29.3398V22.2H34.6798V12.94H34.6898Z" fill="white"/>
<path d="M60.1681 6.98999H54.8281V22.2H60.1681V6.98999Z" fill="white"/>
<path d="M57.5105 5.71C59.1405 5.71 60.5405 4.6 60.5405 2.87C60.5405 1.14 59.1405 0 57.5105 0C55.8805 0 54.4805 1.11 54.4805 2.87C54.4805 4.63 55.8705 5.71 57.5105 5.71Z" fill="white"/>
<path d="M71.9803 6.99998V8.14998C71.2903 7.33998 70.0303 6.66998 68.3303 6.66998C64.0503 6.66998 61.5703 9.93998 61.5703 14.1C61.5703 18.26 64.0503 21.57 68.3303 21.57C70.0303 21.57 71.2903 20.86 71.9803 20.09V21.17C71.9803 23.15 70.9503 24.03 69.2903 24.03C67.9903 24.03 67.1703 23.51 66.8803 22.42H61.7403C62.2903 25.92 65.2003 27.93 69.3003 27.93C73.9603 27.93 77.2603 25.36 77.2603 20.02V6.99998H71.9903H71.9803ZM71.9803 16.05C71.5603 16.76 70.7203 17.34 69.6503 17.34C67.8903 17.34 66.8403 16 66.8403 14.09C66.8403 12.18 67.8903 10.86 69.6503 10.86C70.7203 10.86 71.5603 11.47 71.9803 12.13V16.05Z" fill="white"/>
<path d="M94.2919 22.2V12.23C94.2919 8.84999 92.2819 6.64999 88.8819 6.64999C87.1119 6.64999 85.6119 7.35999 84.7619 8.30999V1.35999H79.4219V22.2H84.7619V13.01C85.0319 11.96 85.9219 11.35 86.9719 11.35C88.3319 11.35 88.9819 12.26 88.9819 13.51V22.19H94.2919V22.2Z" fill="white"/>
<path d="M97.5212 16.96C97.5212 20.81 99.5612 22.5 103.171 22.5C104.361 22.5 105.521 22.3 106.131 22.03V17.53C105.651 17.73 105.011 17.87 104.431 17.87C103.381 17.87 102.801 17.36 102.801 16.18V11.11H106.001V6.98999H102.801V2.79999H97.5312V6.98999H95.2812V11.11H97.5312V16.96H97.5212Z" fill="white"/>
<path d="M12.92 1.35999H7.55L0 22.23H5.64L10.22 8.88999L10.25 8.81998L10.28 8.88999L14.86 22.23H20.5L12.92 1.35999Z" fill="white"/>
<path d="M11.8617 21.98C13.4417 21.09 13.9917 19.1 13.0917 17.53C12.1917 15.96 10.1917 15.41 8.61167 16.31C7.03167 17.2 6.48167 19.19 7.38167 20.76C8.28167 22.33 10.2817 22.88 11.8617 21.98Z" fill="white"/>
</g>
<defs>
<clipPath id="clip0_302_82">
<rect width="123" height="27.92" fill="white"/>
</clipPath>
</defs>
</svg>
