<svg width="120" height="33" viewBox="0 0 120 33" fill="none" xmlns="http://www.w3.org/2000/svg">
<path d="M12.4889 32.1501C12.1543 31.0764 10.0623 31.247 9.04458 31.0284C7.41197 30.6801 6.40131 29.4888 5.27049 31.5376L2.31389 31.5424L0.76609 29.3783C0.577621 28.9075 1.56001 29.0733 1.74142 28.528C1.90161 28.0524 1.72492 27.1373 1.7956 26.532C2.09951 23.9332 1.56473 22.6626 1.3739 20.1502C1.20899 17.9645 1.72728 15.5722 1.57179 13.3816C1.52939 12.7787 1.16894 12.3056 1.16423 11.7459C1.15952 11.023 1.76026 10.3432 1.39746 9.61304C2.34923 9.44731 1.54824 8.87325 1.86628 8.36165C1.90161 8.3064 2.74266 7.48495 2.79684 7.44892C2.88401 7.39368 4.62028 6.72835 4.72158 6.71874C5.07025 6.68512 6.24582 6.90849 6.63218 7.01658C9.18829 7.71794 9.94923 9.47132 10.2437 11.9789C10.2908 12.3776 10.1071 13.2135 10.1518 13.2928C10.3427 13.6218 11.4169 13.581 11.2756 14.5105C11.7797 14.6883 11.7468 13.9605 12.0224 13.8908C12.3122 13.8188 16.1876 13.8428 16.4043 13.9221C16.7341 14.0397 16.6941 14.5898 17.0569 14.902C17.4197 15.2143 20.0488 16.581 20.7037 16.946C21.738 17.5201 23.83 17.866 24.0137 19.2303L24.9749 17.8516L25.0432 16.5786L25.6416 16.4561L25.6251 11.8492L26.4285 11.8444C26.2659 10.5402 27.3402 10.2111 27.9881 9.52657C28.1341 9.37285 28.0399 8.90688 28.3815 8.78678C29.1589 8.51056 31.7645 10.1511 32.9071 9.59382L32.9943 10.6338C34.1345 11.5754 34.7093 9.64666 35.2253 9.57941C36.4927 9.41368 36.7 10.0982 37.6518 10.2159C39.0842 10.3937 40.5401 10.0142 41.8923 9.99494C43.5509 9.97092 45.2235 9.93489 46.8561 10.2111L45.8196 13.6699L44.6393 13.7035C44.7547 14.9501 43.5297 15.4665 42.8135 16.2591C42.5496 16.5521 42.479 17.0397 42.2033 17.2799C41.8759 17.5657 41.3246 17.5273 40.983 17.8876C40.6414 18.2479 40.6791 18.8436 40.5354 18.9853C40.4341 19.0837 40.1019 18.9636 39.9653 19.1486C39.4069 19.9028 40.0218 22.2927 39.9393 23.1862C39.871 23.938 39.0394 24.5985 38.8556 25.3719C38.6719 26.1453 38.2761 27.3991 38.1724 27.9588C38.0594 28.5713 38.302 29.4335 38.1677 29.9572C38.1395 30.0628 37.0063 30.8963 37.3479 31.7346C37.3031 31.7802 36.2571 31.7922 36.0828 31.749C35.8613 31.6937 35.9462 31.2206 35.4444 31.1245C34.3183 30.9083 29.1448 31.3959 28.6925 31.1029C28.4003 29.7386 27.5781 28.7178 26.5416 27.8483C25.6204 27.0773 24.9961 27.5649 24.8241 25.8979C24.6639 24.3415 24.9184 22.8139 24.6168 21.1854C24.5556 20.8587 24.3294 20.5657 24.0137 20.4648V23.8491C24.0137 24.0269 22.9983 26.7818 22.8405 27.1734C22.7298 27.4448 21.712 29.2462 21.5801 29.3807C21.1042 29.8659 18.8544 30.6321 18.1194 30.793C16.9061 31.0596 14.5832 30.7138 14.5125 32.1573H12.4912L12.4889 32.1501ZM14.4395 25.1053C16.5574 22.7707 14.8541 18.9012 11.8127 18.6346C10.7549 18.9492 9.99635 23.8179 10.2602 24.8267C10.312 25.0285 10.6631 25.0236 10.7549 25.1822C11.007 25.6217 10.7102 26.0709 11.3792 26.2078C12.2627 26.3879 13.8364 25.7682 14.4395 25.1053Z" fill="white"/>
<path d="M76.1939 10.9942C76.2858 11.0783 78.1728 11.1767 78.6393 11.2848C82.0836 12.0799 83.1955 13.5018 85.8859 15.2119C86.244 15.4401 86.8306 15.4233 87.0332 15.5866C87.1769 15.7019 88.1099 17.8036 88.4986 18.3032C89.5022 19.5978 91.6978 20.1863 90.7201 22.1606C90.6613 22.2783 90.3597 22.2663 90.322 22.4465C90.2608 22.7371 90.3785 23.0926 90.2867 23.3976C90.216 23.6306 88.9038 24.4593 88.5292 24.8988C87.7635 25.7947 87.2782 27.0701 87.0591 28.2279L83.8905 28.9124L83.106 30.3127C82.0388 30.3655 80.3449 30.231 79.3413 30.5073C79.0728 30.5817 78.9032 31.5665 77.0703 31.737C73.7391 32.0445 69.8402 31.0861 67.0909 29.1406C67.0862 27.9108 67.4537 26.4745 67.489 25.2807C67.522 24.159 67.1922 23.1839 67.0555 22.2135C66.9637 21.5578 67.1427 20.7339 67.065 20.0494C66.7705 20.0133 66.7022 20.5874 66.681 20.7844C66.5773 21.7643 66.7964 22.9028 66.6503 23.83C66.5702 24.3368 66.2051 24.6706 66.1085 25.1246C65.715 26.9621 65.887 28.8451 65.854 30.7138C64.8905 30.918 64.6243 29.7579 63.8209 29.1886C63.2602 28.7899 62.5252 28.6578 62.0328 28.3383C61.5028 27.9925 61.1494 27.3728 60.5416 26.9789C60.2094 26.7627 58.5014 26.1118 58.4095 25.9653C58.3483 25.2903 58.4731 21.4209 57.8771 21.3128L55.9783 21.9229C56.0113 22.9845 55.7639 24.1542 55.0289 24.9589C54.8027 25.2063 52.8685 26.6858 52.5953 26.7963C51.1299 27.3944 50.0227 26.7987 48.7128 26.1622C48.8989 24.9396 47.8246 23.7675 47.6762 22.8044C47.4477 21.3344 47.6762 19.2135 47.4713 17.6787C47.3511 16.7684 46.8187 16.3144 47.0637 15.0318C47.0802 14.9429 47.6621 13.6027 47.7139 13.5378C47.8105 13.4177 49.1557 12.8076 49.5774 12.4546C49.9331 12.1543 50.4679 11.3113 50.5339 11.2728C50.7977 11.1239 56.0348 10.3529 56.4636 10.4033C57.1326 10.485 57.6344 10.9125 58.2941 11.0062C59.0692 11.1143 59.9267 10.9245 60.69 11.0374C61.7643 11.196 63.3333 11.991 64.351 12.2456C64.8104 12.3609 65.3617 12.1231 65.8588 12.3585C66.9566 12.8797 66.5255 16.2544 66.6762 17.2728C66.7375 17.6763 67.2252 18.2335 67.171 18.8244C67.8495 17.9741 66.8906 16.7756 66.9589 15.8412C66.9872 15.4713 67.4937 14.7196 67.6256 14.1551C68.0167 12.4666 67.5031 10.7612 68.363 9.15915C68.8837 8.74602 71.2749 8.90214 71.9722 9.02704C72.4316 9.11111 75.579 10.0743 75.8358 10.2352C76.2481 10.4922 76.1044 10.9149 76.1916 10.9966L76.1939 10.9942ZM55.1631 14.7292C54.7626 15.7452 53.0358 19.7467 55.0406 19.8596C56.784 19.9581 59.022 17.6955 58.2281 15.9926C57.863 15.2119 55.9853 14.7748 55.1631 14.7292ZM83.04 21.2816C81.2496 21.2335 81.5535 19.7467 80.3968 18.9373C80.1188 18.7427 79.6453 18.7427 79.4026 18.5098C79.1599 18.2768 78.9762 17.4289 78.6817 16.9845C78.0621 16.055 76.3211 14.9597 75.2139 14.9645C74.1891 14.9694 74.4576 16.6963 74.3045 17.2343C73.904 18.6226 73.1007 18.9613 73.7956 20.7123C74.0571 21.3704 74.6697 21.7379 74.9288 22.2279C75.3152 22.9557 75.0772 24.1326 76.2528 23.9477C76.6698 23.8828 76.9454 23.4216 77.3012 23.3856C78.0197 23.3088 78.3802 23.6282 79.4002 23.2247C80.0929 22.9509 80.63 22.1799 81.0258 22.0021C81.6195 21.7355 82.682 22.0309 83.0424 21.2816H83.04Z" fill="white"/>
<path d="M119.223 24.1495C118.229 24.5217 117.496 25.3216 116.801 26.1022C115.197 27.9036 115.91 27.087 113.767 27.9469C112.165 28.5906 112.666 28.641 110.864 28.8812C107.985 29.2655 104.336 29.9044 101.773 30.9564C101.179 31.199 100.079 31.713 99.4901 31.7227C98.7598 31.7371 97.4523 31.0886 96.6042 31.1006C96.5076 29.7843 96.4699 28.5329 97.3015 27.4425C97.5183 27.1566 100.501 25.2783 100.779 25.2111C101.203 25.1078 101.919 25.4177 102.536 25.384C103.747 25.3168 108.68 24.1134 108.918 22.814C109.217 21.1783 107.693 21.3152 106.946 20.9141C105.91 20.3568 105.17 19.5618 103.912 19.276C102.76 19.0142 101.196 19.4297 100.364 19.1823C99.7657 19.0046 98.7739 17.6523 97.8174 17.77C97.5984 15.3249 97.7091 14.28 98.92 12.2672C99.1014 11.967 99.1556 11.4098 99.3087 11.2248C99.4241 11.0855 100.972 10.8117 101.504 10.5811C102.48 10.1584 102.937 9.33692 103.464 9.08231C103.992 8.82771 104.767 8.86134 105.486 8.46743C106.056 8.15518 106.365 7.60274 106.843 7.38177C107.552 7.05511 108.678 6.98545 109.519 6.61076C111.401 5.77009 111.215 4.91982 113.851 5.28971C115.277 5.48907 114.784 6.13758 115.38 7.02148C115.828 7.68441 116.789 8.32571 117.602 8.35694C117.296 12.4858 112.935 13.2904 109.634 13.8693C109.319 16.449 112.438 16.6435 114.101 17.3425C116.987 18.553 118.384 21.0198 119.22 23.9429V24.147L119.223 24.1495Z" fill="white"/>
<path d="M94.9342 0.800632C95.0048 0.846269 95.2616 1.72056 95.4784 1.99198C95.794 2.38829 96.2794 2.39309 96.383 2.91911C96.5479 3.77179 96.1945 4.58603 96.171 5.37386C96.0697 8.75333 96.2629 12.1568 96.1781 15.5363C94.3405 15.618 94.6632 14.7677 94.1355 13.61C93.1201 11.3762 91.6454 6.79578 91.3156 4.36986C91.2614 3.96394 91.2543 2.68853 91.325 2.30663C91.4616 1.56924 94.1449 0.303439 94.9318 0.803034L94.9342 0.800632Z" fill="white"/>
</svg>
