<?xml version="1.0" encoding="UTF-8"?>
<svg id="Layer_1" data-name="Layer 1" xmlns="http://www.w3.org/2000/svg" viewBox="0 0 263.1 46.88">
  <defs>
    <style>
      .cls-1 {
        fill: #fff;
      }
    </style>
  </defs>
  <path class="cls-1" d="M41.09,35.88c-.88,2.21-2.17,4.13-3.86,5.75-1.7,1.62-3.81,2.91-6.35,3.84-2.53.94-5.52,1.41-8.95,1.41-3.81,0-7.1-.56-9.87-1.69-2.76-1.13-5.04-2.7-6.82-4.72-1.78-2.02-3.1-4.44-3.96-7.25-.86-2.81-1.29-5.91-1.29-9.28s.43-6.52,1.29-9.44c.86-2.92,2.2-5.45,4.02-7.59,1.82-2.15,4.15-3.83,6.97-5.06,2.83-1.23,6.21-1.84,10.15-1.84,5.95,0,10.47,1.4,13.57,4.19,3.1,2.79,5.07,6.77,5.91,11.94l-14.2,1.56c-.17-.79-.39-1.52-.66-2.19-.27-.67-.63-1.25-1.07-1.75-.44-.5-1-.89-1.67-1.16-.67-.27-1.49-.41-2.45-.41-2.26,0-3.96.9-5.09,2.69-1.13,1.79-1.7,4.6-1.7,8.44,0,2.38.2,4.3.6,5.78.4,1.48.93,2.64,1.6,3.47.67.83,1.45,1.4,2.32,1.69.88.29,1.78.44,2.7.44,1.72,0,3.1-.49,4.15-1.47,1.05-.98,1.7-2.49,1.95-4.53h14.2c-.13,2.58-.63,4.98-1.51,7.19M55.42,45.75c2.43.75,5.17,1.13,8.23,1.13,6.41,0,11.33-1.64,14.77-4.91,3.43-3.27,5.15-8.24,5.15-14.91V1.13h-14.26v26.56c0,2.37-.42,4.14-1.26,5.28-.84,1.15-2.24,1.72-4.21,1.72s-3.37-.57-4.21-1.72c-.84-1.15-1.26-2.91-1.26-5.28V1.13h-14.26v25.94c0,3.5.44,6.5,1.32,9,.88,2.5,2.16,4.55,3.83,6.16,1.68,1.6,3.73,2.78,6.16,3.53M86.17,1.13v44.63h31.86v-12.19h-17.59V1.13h-14.26ZM134.32,21.38v-9.25h3.83c2.09,0,3.54.39,4.34,1.16.8.77,1.19,1.93,1.19,3.47s-.39,2.7-1.16,3.47c-.77.77-2.23,1.16-4.37,1.16h-3.83ZM120.62,1.13v44.63h13.7v-13.38h3.77c3.52,0,6.47-.41,8.86-1.22,2.39-.81,4.27-1.92,5.65-3.31,1.38-1.4,2.38-3.05,2.99-4.97.61-1.92.91-3.98.91-6.19s-.29-4.2-.88-6.09c-.59-1.9-1.58-3.54-2.98-4.94-1.4-1.4-3.3-2.5-5.69-3.31-2.39-.81-5.36-1.22-8.92-1.22h-17.4ZM171.52,21.13v-9.5h4.78c2.14,0,3.65.4,4.56,1.19.9.79,1.35,1.98,1.35,3.56s-.45,2.77-1.35,3.56c-.9.79-2.42,1.19-4.56,1.19h-4.78ZM193.86,23.44c1.15-2.12,1.73-4.69,1.73-7.69,0-2-.3-3.9-.91-5.69-.61-1.79-1.62-3.34-3.05-4.66-1.42-1.31-3.3-2.35-5.62-3.13-2.32-.77-5.2-1.16-8.64-1.16h-19.23v44.63h13.38v-14.31h5.03l7.16,14.31h14.58l-9.3-17.13c2.09-1.33,3.72-3.06,4.87-5.19M213.31,1.13h-14.26v44.63h14.26V1.13ZM228.42,13.31v32.44h14.26V13.31h12.5V1.13h-39.27v12.19h12.5ZM250.35,45.75h12.76v-12.69h-12.76v12.69Z"/>
</svg>