<svg width="125" height="22" viewBox="0 0 125 22" fill="none" xmlns="http://www.w3.org/2000/svg">
<path d="M19.5253 16.8368C19.1073 17.8741 18.4944 18.7753 17.6915 19.5357C16.8839 20.2961 15.8815 20.9016 14.6749 21.3382C13.4729 21.7794 12.0525 22 10.423 22C8.61299 22 7.05002 21.7371 5.73408 21.2067C4.42289 20.6763 3.33973 19.9394 2.49411 18.9913C1.64849 18.0431 1.0214 16.9072 0.612838 15.5882C0.204279 14.2693 0 12.8142 0 11.2323C0 9.65052 0.204279 8.17196 0.612838 6.80136C1.0214 5.43077 1.65799 4.24323 2.52261 3.23874C3.38724 2.22957 4.49415 1.44101 5.83384 0.863665C7.17828 0.286324 8.78402 0 10.6558 0C13.4824 0 15.6298 0.657137 17.1025 1.96672C18.5752 3.2763 19.5111 5.14444 19.9101 7.57115L13.1641 8.30339C13.0834 7.93258 12.9789 7.58993 12.8506 7.27544C12.7223 6.96096 12.5513 6.68871 12.3423 6.45402C12.1332 6.21933 11.8672 6.03627 11.5489 5.90954C11.2306 5.7828 10.8411 5.71709 10.385 5.71709C9.31134 5.71709 8.50372 6.13953 7.9669 6.97973C7.43007 7.81993 7.15928 9.13889 7.15928 10.9413C7.15928 12.0585 7.25429 12.9597 7.44432 13.6544C7.63435 14.349 7.88614 14.8935 8.20443 15.2831C8.52273 15.6727 8.89328 15.9403 9.30659 16.0764C9.72465 16.2125 10.1522 16.2829 10.5893 16.2829C11.4064 16.2829 12.062 16.0529 12.5608 15.5929C13.0596 15.1329 13.3684 14.4242 13.4872 13.4666H20.2332C20.1714 14.6776 19.9339 15.8041 19.5158 16.8415M26.333 21.4696C27.4875 21.8216 28.7891 22 30.2429 22C33.288 22 35.6254 21.2302 37.2596 19.6953C38.8891 18.1604 39.7062 15.8276 39.7062 12.6968V0.525709H32.9317V12.9925C32.9317 14.105 32.7322 14.9358 32.3332 15.4709C31.9341 16.0107 31.269 16.2782 30.3331 16.2782C29.3972 16.2782 28.7321 16.0107 28.3331 15.4709C27.934 14.9311 27.7345 14.105 27.7345 12.9925V0.525709H20.96V12.7015C20.96 14.3444 21.169 15.7525 21.5871 16.926C22.0052 18.0994 22.6133 19.0617 23.4066 19.8174C24.2047 20.5684 25.1786 21.1223 26.333 21.4743M40.9414 0.525709V21.4743H56.0771V15.7525H47.7206V0.525709H40.9461H40.9414ZM63.8159 10.0307V5.68893H65.6354C66.6283 5.68893 67.3172 5.87199 67.6972 6.23341C68.0773 6.59484 68.2626 7.13932 68.2626 7.86217C68.2626 8.58502 68.0773 9.12951 67.7115 9.49093C67.3457 9.85236 66.6521 10.0354 65.6354 10.0354H63.8159V10.0307ZM57.3075 0.525709V21.4743H63.8159V15.1939H65.6069C67.2792 15.1939 68.6806 15.0015 69.8161 14.6213C70.9515 14.2411 71.8446 13.7201 72.5002 13.0676C73.1558 12.4105 73.6309 11.636 73.9206 10.7348C74.2104 9.83358 74.353 8.86665 74.353 7.82931C74.353 6.79198 74.2152 5.8579 73.9349 4.97077C73.6546 4.07894 73.1843 3.30915 72.5192 2.65202C71.8541 1.99488 70.9515 1.47856 69.8161 1.09836C68.6806 0.718156 67.2697 0.525709 65.5784 0.525709H57.3123H57.3075ZM81.4885 9.91338V5.45423H83.7593C84.776 5.45423 85.4933 5.64199 85.9256 6.0128C86.3532 6.38361 86.567 6.94218 86.567 7.68381C86.567 8.42543 86.3532 8.984 85.9256 9.35481C85.4981 9.72562 84.776 9.91338 83.7593 9.91338H81.4885ZM92.1015 10.9977C92.6478 10.0026 92.9234 8.79624 92.9234 7.38809C92.9234 6.44933 92.7809 5.5575 92.4911 4.7173C92.2013 3.87711 91.7215 3.14956 91.0421 2.52998C90.3675 1.91508 89.4744 1.42693 88.3722 1.06081C87.2701 0.699381 85.9019 0.516322 84.2676 0.516322H75.1321V21.4649H81.4885V14.748H83.8781L87.2796 21.4649H94.2061L89.7879 13.4244C90.7808 12.8001 91.5552 11.9881 92.1015 10.9883M101.342 0.525709H94.5671V21.4743H101.342V0.525709ZM108.52 6.2428V21.4696H115.294V6.2428H121.233V0.525709H102.577V6.24749H108.515L108.52 6.2428ZM118.938 21.4696H125V15.5131H118.938V21.4696Z" fill="white"/>
</svg>
