<svg width="173" height="29" viewBox="0 0 173 29" fill="none" xmlns="http://www.w3.org/2000/svg">
<g clip-path="url(#clip0_343_344)">
<path d="M10.1642 23.4574H9.68205V27.5687H5.30384V14.793H9.64633V17.4377H10.1642V11.0116H9.64633V13.6533H5.30384V1.39302H9.68205V5.50727H10.1642V0.256226H0V0.624358H1.03874V28.3403H0V28.7084L10.1642 28.7438V23.4574Z" fill="white"/>
<path d="M15.3205 28.3403H14.2817L15.6181 20.1884H20.3297L21.4041 28.3403H20.3654V28.7084H26.7467V28.3403H25.7079L21.7762 0.624358H22.8119V0.256226H16.4307V0.624358H17.5081L12.9841 28.3403H11.9453V28.7084H15.3205V28.3403ZM18.1748 3.30436L20.1392 19.0869H15.7997L18.1748 3.30436Z" fill="white"/>
<path d="M32.5077 15.3437C35.365 17.3611 35.1031 18.3536 35.1031 21.2191V25.1802C35.1031 26.317 35.2876 28.5199 33.7667 28.5199C32.2458 28.5199 32.3202 26.317 32.3202 25.1449V20.2267H28.4986V28.7084H28.8706V26.5026C29.8707 28.5199 32.0613 28.997 33.8054 28.997C39.4813 28.997 39.2968 25.1802 39.2968 23.051V19.7819C39.2968 16.4776 39.4813 15.1906 36.1418 12.8817C31.8738 9.91011 32.1714 9.3211 32.1714 4.91529V2.8243C32.1714 2.53274 31.9869 0.474139 33.6179 0.474139C35.2489 0.474139 35.1388 2.05269 35.1388 2.8243V8.58778H38.886V0.256205H38.514V2.53568C37.8116 0.957129 36.252 0.00292969 33.8024 0.00292969C28.7962 0.00292969 28.2396 2.57102 28.2396 4.62962V7.0534C28.2396 11.8244 27.8289 12.0836 32.5047 15.3496L32.5077 15.3437Z" fill="white"/>
<path d="M41.2439 1.6139H44.4345V28.3403H43.3601V28.7084H49.7384V28.3403H48.6996V1.6139H51.8903V5.98437H52.3367V0.256226H40.7617V5.98437H41.2439V1.6139Z" fill="white"/>
<path d="M71.2689 0.624358V0.256226H64.8906V0.624358H65.9294V28.3403H64.8906V28.7084H71.2689V28.3403H70.1945V0.624358H71.2689Z" fill="white"/>
<path d="M86.8545 28.3403H85.8157V28.7084H92.1583V28.3403H91.1196V0.624358H92.1583V0.256226H85.146V0.624358H86.1848L82.9197 21.0366L79.8065 0.624358H80.8452V0.256226H73.8359V0.624358H74.8717V28.3403H73.8359V28.7084H77.2468V28.3403H76.1694V4.55012L79.8809 28.7084H82.9197L86.8545 4.55012V28.3403Z" fill="white"/>
<path d="M102.214 14.902C104.511 14.902 106.854 14.4632 106.854 11.0499V4.4765C106.854 -0.256213 103.476 0.256227 100.845 0.256227H94.6836V0.62436H95.7223V28.3403H94.6836V28.7084H101.068V28.3403H99.9904V14.902H102.217H102.214ZM99.9874 0.62436H100.657C102.139 0.62436 102.66 1.02783 102.66 4.07302V10.7554C102.66 13.618 102.583 14.4632 100.657 14.4632H99.9874V0.62436Z" fill="white"/>
<path d="M118.835 5.50727V0.256226H108.668V0.624358H109.707V28.3403H108.668V28.7084L118.835 28.7438V23.4574H118.35V27.5687H113.975V14.793H118.317V17.4377H118.835V11.0116H118.317V13.6533H113.975V1.39302H118.35V5.50727H118.835Z" fill="white"/>
<path d="M126.659 14.6458C128.406 14.6458 130.151 14.4249 130.151 16.5925V28.7085H135.454V28.3403H134.416V17.6556C134.416 15.3055 133.597 14.2777 130.63 14.2777C133.371 13.5826 133.526 12.0041 133.526 9.94843V6.27888C133.526 5.50728 133.71 2.64173 132.448 1.32235C131.151 0.0736426 128.147 0.256236 127.516 0.256236H121.355V0.624369H122.394V28.3403H121.355V28.7085H126.659V14.6458ZM126.659 0.624369H127.329C128.817 0.624369 129.332 1.02784 129.332 4.07303V10.5698C129.332 13.4354 129.261 14.2777 127.329 14.2777H126.659V0.624369Z" fill="white"/>
<path d="M144.362 28.3403H143.281V0.624358H144.362V0.256226H137.98V0.624358H139.016V28.3403H137.98V28.7084H144.362V28.3403Z" fill="white"/>
<path d="M149.554 28.3403H148.515L149.849 20.1884H154.56L155.638 28.3403H154.599V28.7084H160.98V28.3403H159.938L156.007 0.624358H157.048V0.256226H150.667V0.624358H151.745L147.218 28.3403H146.176V28.7084H149.551V28.3403H149.554ZM152.411 3.30436L154.379 19.0869H150.036L152.411 3.30436Z" fill="white"/>
<path d="M172.521 21.8052V27.4951H168.14V0.624358H169.217V0.256226H162.836V0.624358H163.875V28.3403H162.836V28.7084H173V21.8052H172.521Z" fill="white"/>
</g>
<defs>
<clipPath id="clip0_343_344">
<rect width="173" height="29" fill="white"/>
</clipPath>
</defs>
</svg>
