<svg width="154" height="20" viewBox="0 0 154 20" fill="none" xmlns="http://www.w3.org/2000/svg">
<path d="M103.494 6.268C103.494 2.94598 101.501 0.884621 98.3149 0.884621H92.5059V18.9598H95.8789V11.924H97.6846L100.376 18.9598H103.971L100.904 11.1573C102.557 10.2715 103.494 8.48268 103.494 6.268ZM97.872 8.92562H95.8959V3.88296H97.872C99.2689 3.88296 100.104 4.81994 100.104 6.37022C100.104 7.9205 99.2348 8.92562 97.872 8.92562ZM142.964 15.8933V11.3277H148.467V8.27825H142.964V3.96814H149.352V0.884621H139.591V18.9598H149.608V15.8763H142.964C142.964 15.8877 142.964 15.8877 142.964 15.8763V15.8933ZM111.602 0.884621L106.611 18.9598H110.291L111.381 14.5305H115.81L116.9 18.9598H120.58L115.589 0.884621H111.602ZM112.079 11.6003L113.578 5.45028L115.095 11.6003H112.079ZM7.63655 8.78933L6.5974 8.21011C5.40494 7.56274 4.16137 6.89833 4.16137 5.46731C4.16137 4.03628 4.87685 3.64446 5.98414 3.64446C7.09142 3.64446 7.78987 4.42811 7.90911 5.99542V6.19986H11.265V5.97839C11.2139 2.69044 9.20379 0.663155 6.00117 0.663155C2.79855 0.663155 0.669151 2.63933 0.669151 5.68878C0.669151 8.73822 2.38971 9.74335 4.07619 10.6463L5.30273 11.3447C6.86997 12.2476 7.84097 13.0654 7.84097 14.3942C7.84097 15.723 6.63147 16.2511 5.91599 16.2511C4.51911 16.2511 3.75252 15.3141 3.66735 13.4742V13.2698H0.277344V13.4913C0.36252 17.171 2.37267 19.2154 5.9671 19.2154C9.56153 19.2154 11.3843 17.3584 11.3843 14.2409C11.3673 10.7655 8.84605 9.41966 7.63655 8.78933ZM24.3822 13.1505C24.1437 14.9734 23.1215 15.9956 21.5202 15.9956C19.9189 15.9956 18.1473 13.815 18.1473 10.0159C18.1473 6.21689 19.3908 3.88296 21.4862 3.88296C23.5815 3.88296 23.8881 4.88808 24.1437 6.84722V7.03462H27.7892V6.79612C27.4315 2.82673 25.2169 0.646118 21.5543 0.646118C17.8917 0.646118 14.638 4.05332 14.638 10.033C14.638 16.0126 17.0741 19.2324 21.5032 19.2324C25.9324 19.2324 27.67 16.9837 27.9766 13.2017V12.9632C27.9936 12.9632 24.3822 12.9632 24.3822 12.9632V13.1505ZM35.1484 0.884621L30.1571 18.9598H33.8367L34.9099 14.5305H39.3391L40.4293 18.9598H44.126L39.1346 0.884621H35.1484ZM35.6424 11.6003L37.1415 5.45028L38.6577 11.6003H35.6424ZM81.6204 11.8899H84.789V12.8098C84.789 14.9223 83.6987 16.1319 81.7738 16.1319C78.9629 16.1319 78.3326 13.0143 78.3156 10.3226V9.96482C78.3156 8.21011 78.5882 6.79612 79.0822 5.77396C79.6614 4.51329 80.5643 3.86592 81.6715 3.86592H81.8589C83.3069 3.86592 84.2268 4.7518 84.4994 6.43836L84.5335 6.62576H87.9575V6.5065C87.5146 2.72451 85.3171 0.646118 81.7567 0.646118C78.1964 0.646118 74.8404 4.07036 74.8404 10.033C74.8404 15.9956 77.2765 19.2324 81.7056 19.2324C86.1348 19.2324 87.8724 16.9837 88.179 13.2017V9.09598H81.6204V11.8899ZM132.334 13.1676C132.096 14.9904 131.074 16.0126 129.472 16.0126C127.871 16.0126 126.099 13.832 126.099 10.033C126.099 6.23393 127.343 3.9 129.438 3.9C131.534 3.9 131.84 4.90512 132.096 6.86426L132.13 7.05166H135.758V6.81316C135.401 2.84377 133.186 0.663155 129.523 0.663155C125.861 0.663155 122.607 4.08739 122.607 10.05C122.607 16.0126 125.043 19.2154 129.472 19.2154C133.901 19.2154 135.639 16.9666 135.946 13.1846V12.9461H132.368L132.334 13.1676ZM52.882 0.901658H47.2434V18.9769H50.5993V12.3669H52.8139C56.3061 12.3669 58.4696 10.1692 58.4696 6.62576C58.4696 3.08227 56.3232 0.884622 52.882 0.901658ZM52.4562 9.28338H50.5993V3.96814H52.5243C54.0404 3.96814 54.9603 4.95623 54.9603 6.62576C54.9603 8.29529 54.0575 9.28338 52.4562 9.28338ZM65.3348 11.3277H70.8372V8.27825H65.3348V3.96814H71.723V0.884621H61.9618V18.9598H71.9785V15.8763H65.3518V11.3277H65.3348Z" fill="white"/>
<path d="M152.636 3.71259C151.887 3.71259 151.273 3.13337 151.273 2.33268C151.273 1.53198 151.887 0.952759 152.636 0.952759C153.386 0.952759 153.999 1.53198 153.999 2.33268C153.999 3.13337 153.369 3.71259 152.636 3.71259ZM152.636 1.19127C152.006 1.19127 151.512 1.66827 151.512 2.34971C151.512 3.03115 152.023 3.49113 152.636 3.49113C153.25 3.49113 153.761 3.01412 153.761 2.34971C153.761 1.68531 153.25 1.19127 152.636 1.19127ZM152.415 2.53711V3.04819H152.108V1.61717H152.738C153.045 1.61717 153.25 1.78753 153.25 2.09417C153.25 2.40082 153.13 2.46897 152.943 2.52007L153.318 3.06523H152.96L152.619 2.55415H152.415C152.415 2.54279 152.415 2.53711 152.415 2.53711ZM152.721 1.87271H152.415V2.26453H152.721C152.858 2.26453 152.943 2.17935 152.943 2.07714C152.943 1.97492 152.858 1.87271 152.721 1.87271Z" fill="white"/>
</svg>
