<svg width="558" height="87" viewBox="0 0 558 87" fill="none" xmlns="http://www.w3.org/2000/svg">
<path d="M340.079 6.08459C339.982 4.34465 341.094 3.64178 342.731 4.08737C344.068 4.45075 352.578 9.1401 353.909 10.1029C355.24 11.0657 355.259 12.9754 353.809 13.6411C352.214 14.3732 347.422 10.583 345.631 10.0631C346.186 11.8932 345.97 13.3998 344.715 14.8533C344.295 15.3413 343.608 15.1981 343.78 15.8956L353.901 21.2507C356.094 22.2719 355.233 25.5926 352.913 25.4441C351.926 25.3805 346.387 21.6937 346.16 21.9987C346.397 24.0994 345.977 25.5926 344.313 26.9056L354.171 32.388C356.347 33.6081 355.507 36.9845 353.138 37.1145C352.021 37.1755 346.735 33.5815 346.424 33.9369C346.675 35.7936 346.025 37.1065 344.839 38.4406L354.435 43.5278C356.704 44.976 355.859 48.6469 353.135 48.7742C351.802 48.8352 347.047 45.4826 346.688 45.8725C346.865 47.2173 346.228 48.4639 345.37 49.4532C345.383 49.989 353.571 53.8614 354.699 54.6677C356.112 55.6809 356.654 57.4819 355.668 59.0017C353.365 62.5558 349.773 58.6197 347.095 57.7975L345.88 60.8424C348.312 62.6858 353.344 64.1791 355.415 66.1471C357.792 68.4069 356.072 72.5075 352.623 72.1361C351.421 72.0062 347.203 69.2901 346.952 69.4758L346.136 71.969L355.119 76.7857C357.731 78.6291 357.412 82.5307 354.395 83.7136C351.915 84.6897 349.134 82.1461 346.952 81.1435C345.835 84.9576 342.639 86.305 339.018 84.7321C336.796 83.7667 328.761 79.4964 327.158 78.0747C326.268 77.287 325.529 76.0245 325.352 74.8468C325.206 73.8681 325.761 72.3934 325.428 71.8603C325.18 71.4624 318.323 68.1337 317.187 67.399C313.524 65.0278 312.99 61.2641 316.482 58.3784L319.475 57.2776C317.304 56.4554 314.506 54.933 314.189 52.3734C314.039 51.1666 314.372 49.9757 314.345 48.7848C310.352 45.6816 300.473 44.1246 304.158 37.1198L299.541 34.7247C298.661 36.8386 297.615 37.8996 295.164 37.2577C291.794 34.8997 286.976 33.3322 283.73 30.969C281.245 29.1601 282.689 25.5316 285.526 25.6961C287.409 25.8075 290.621 28.4837 292.534 29.1548C292.56 27.7914 293.033 26.5104 293.857 25.4468L283.017 19.4843C281.86 18.2483 281.691 16.8213 282.642 15.3758C284.966 11.8535 289.633 16.1476 292.267 17.2192C292.399 16.2325 292.536 15.1344 293.321 14.4342L283.305 8.84835C281.371 7.39486 281.052 4.85656 282.88 3.15109C285.104 1.07695 287.161 2.71345 289.367 3.81949C291.831 5.05548 296.316 7.26754 298.429 8.77673C301.075 10.6679 299.314 13.4104 299.691 14.0045C301.617 14.8851 303.537 15.8771 305.386 16.9088C308.865 18.8504 313.215 20.1633 311.841 25.1444C314.467 26.5289 317.377 27.8604 319.913 29.3749C322.362 30.8363 324.364 32.0034 323.938 35.3639C323.693 37.3134 321.754 39.2337 319.844 39.4751C316.839 39.8543 314.06 37.1649 311.413 36.0535L311.284 36.5787C312.029 36.7617 312.737 37.1357 313.402 37.5044C315.608 38.7324 321.868 41.703 323.025 43.4907C323.909 44.8567 323.767 46.1829 323.45 47.6973L325.909 48.7477C327.29 47.0024 328.785 46.0104 331.096 45.9972C327.605 44.3209 324.065 42.0372 326.147 37.5813C327.348 35.0058 329.641 34.9501 332.153 34.8573C328.648 33.3269 323.769 30.5923 326.493 25.9931C329.718 20.5426 335.412 26.277 338.936 27.5183C339.364 27.6694 339.361 28.054 339.805 27.4334L328.056 20.9351C325.455 19.1474 325.394 15.2166 328.003 13.4555C331.796 10.896 336.218 15.5376 339.681 16.9539L340.095 15.7949C336.762 13.726 332.914 12.1505 329.593 10.1082C327.087 8.56454 325.201 6.56732 327.076 3.50916C330.114 -1.44809 336.524 4.78759 340.072 6.08459H340.079ZM303.365 27.3034L303.516 25.9799L299.665 23.9668L299.161 25.4229C299.897 25.5316 302.903 27.7198 303.365 27.3008V27.3034Z" fill="white"/>
<path d="M43.1306 21.9939C43.3054 23.8036 43.075 25.7247 41.3666 26.7277C38.2597 28.5559 35.4468 25.4222 32.671 24.3741C30.4568 30.5752 25.2681 27.6246 21.1494 25.4408C20.7494 27.4707 18.5749 28.0942 16.9062 28.7576C18.4319 29.6598 20.2489 30.3099 21.0991 31.9895C23.0035 35.7521 20.4501 39.7748 16.3818 39.8995C19.7085 41.5792 22.6062 43.548 21.4381 47.8148L24.2986 49.3007C27.5432 43.6303 32.5519 49.5528 36.5142 50.5346C38.0213 47.3478 39.8277 48.2341 42.3413 49.4467C44.4549 50.4656 50.8911 53.7135 52.4088 55.0163C53.6749 56.1016 53.8947 57.8714 52.8909 59.23C50.7402 62.1462 46.0123 57.8688 43.663 57.0144C43.8007 58.4499 42.8207 59.4794 42.6114 60.7186C45.1277 62.0055 47.7578 63.2368 50.1972 64.6643C52.6366 66.0919 55.2826 67.4345 53.2008 70.6824L51.3467 72.1365L63.2736 78.6322C65.0509 79.9695 63.316 82.6336 61.409 82.1082C60.7839 81.9357 59.4489 81.1211 58.7576 80.7682C55.5978 79.1682 52.5598 77.2471 49.4238 75.5993C48.1074 74.0549 48.8649 73.1156 50.0224 71.8764C49.0079 71.773 48.0121 71.1627 47.1036 70.685C44.4946 69.3105 40.0899 67.2408 37.8571 65.6196C35.9686 64.2504 36.0295 62.921 36.4984 60.7505L32.9386 58.8745C29.8131 64.7996 25.5144 62.0719 21.0461 59.6864C19.682 61.8808 17.5817 62.584 15.0628 62.3213L19.4251 64.9801C23.2233 68.0528 20.6382 74.0629 15.7461 73.4393C14.1887 73.2403 5.30514 68.2836 3.49346 67.14C0.77329 65.4232 -0.551038 62.4248 1.67913 59.6599C3.11735 57.8794 5.00054 57.76 7.11682 57.9404C5.33163 56.8658 1.96254 55.6585 0.966642 53.7506C-0.913903 50.1366 1.74005 46.0131 5.78984 46.3978C4.62179 45.0234 2.826 44.8164 1.54405 43.357C-1.43569 39.9579 0.839507 34.9375 5.26011 34.7226C4.2086 33.6214 2.61675 33.3826 1.53875 32.2177C-1.44893 28.9858 0.590533 23.5435 4.99525 23.3127C3.77687 22.1107 2.06318 21.7153 1.02491 20.2612C-1.40126 16.8701 0.823615 12.0726 4.99525 11.9028C2.00491 9.88083 -1.34299 7.81378 0.553451 3.61865C3.04848 -1.90322 8.65039 1.32075 12.279 3.41168C12.8829 3.39841 13.7464 2.00269 14.4536 1.62059C18.0372 -0.311135 21.2103 3.37453 24.4311 4.45715C25.9514 2.24946 27.4611 1.47465 30.0674 2.57318C32.0857 3.42495 40.1959 7.73683 41.6791 8.98396C43.7398 10.7193 43.0299 13.7788 41.017 15.2249C41.0328 15.9865 51.7096 20.4124 52.6313 22.1558C53.4974 23.7903 52.1625 25.5389 50.4091 25.4673C49.2013 25.4169 43.4193 21.6702 43.1332 21.9913L43.1306 21.9939ZM37.0334 17.215L37.7194 15.3523L32.5386 12.4388L31.8526 14.5669L37.0334 17.215ZM24.0576 15.3549C23.8643 14.8614 23.2074 14.535 22.7333 14.5642C22.9266 15.0577 23.5835 15.3841 24.0576 15.3549Z" fill="white"/>
<path d="M395.189 12.9158C394.979 13.128 395.128 13.5393 395.52 13.7808C399.043 15.9618 403.003 17.4847 406.451 19.8143C407.888 21.1197 408.161 22.7515 407.772 24.6035C410.557 26.7102 418.072 29.0929 419.628 32.099C421.417 35.5589 418.711 40.0297 414.804 39.7166C415.623 40.6851 417.166 41.0379 418.117 41.8366C420.673 43.9804 420.768 47.7056 418.234 49.9158L414.274 51.3857C417.661 52.6779 420.89 54.8987 419.594 59.0484C422.488 60.8049 426.035 62.1607 428.829 64.0154C433.441 67.0773 431.888 73.469 426.467 73.9466L429.653 75.9286C434.194 80.0677 429.998 87.1865 424.084 84.9524C422.35 84.2971 412.055 78.627 411.093 77.5259C408.933 75.053 409.571 71.4446 412.169 69.5846L414.801 68.3774C412.392 67.523 409.916 65.7055 409.783 62.8983C409.744 62.044 410.515 60.7173 410.041 60.2849L407.008 58.8415C403.721 64.026 398.078 57.9473 394.255 56.4349C394.277 58.1808 393.617 59.5419 391.674 59.3031L380.254 53.2059C378.189 51.9933 378.791 49.08 381.267 49.2552C382.621 49.3507 388.808 53.5906 389.087 53.251C388.419 50.9188 388.71 49.2817 390.674 47.8118L379.274 41.4519C377.726 39.316 379.655 36.7953 382.123 37.8062L393.577 44.1158C395.371 45.7528 393.686 47.7109 393.858 47.9418L398.892 50.3324C399.321 47.7136 401.845 45.9757 404.461 46.3498C403.448 45.2885 401.94 44.9993 400.774 44.0733C398.319 42.1258 398.118 39.5335 399.424 36.8033L394.656 34.6754C394.587 36.6017 393.06 37.4295 391.199 36.9386C389.85 36.5831 381.37 31.9027 379.987 30.9183C378.6 29.9339 377.916 28.8328 378.786 27.148C380.572 23.6749 385.959 28.724 388.294 29.3688C388.021 27.6733 388.811 26.6147 389.617 25.2748C389.46 24.5584 379.396 20.3874 378.375 18.4718C377.792 17.376 377.983 16.1289 378.746 15.1684C381.034 12.2816 385.545 16.6808 388.029 17.429C387.766 16.0122 388.647 15.0888 389.1 13.8604L378.773 8.25662C376.403 5.97744 378.211 1.97629 381.466 2.35571C382.513 2.47776 387.536 5.75722 387.764 5.48924C388 1.73219 391.379 0.219818 394.717 1.58361C396.986 2.5096 404.508 6.55586 406.324 8.00721C410.319 11.1965 407.761 17.2433 402.271 16.3067C401.073 16.1024 395.589 12.5125 395.186 12.9211L395.189 12.9158ZM399.165 25.6542C398.303 25.7126 395.371 23.3936 394.926 23.7942L394.77 25.1209L398.505 27.2409L399.165 25.6542Z" fill="white"/>
<path d="M223.711 16.5054C224.646 13.8152 227.215 13.4915 229.607 14.4731C231.998 15.4548 239.203 19.3229 241.042 20.7689C244.848 23.7668 242.163 29.6301 237.202 28.3381C236.306 28.1046 232.165 25.3613 231.93 25.5444C231.163 28.2611 228.798 29.3701 226.11 28.996C227.323 30.1687 229.126 30.5773 230.426 31.6916C234.712 35.3687 231.34 41.882 225.632 40.4838C224.599 40.2318 221.263 37.9051 220.719 38.0324C219.59 39.6614 218.145 40.9189 216.068 40.9322C217.215 42.1022 218.961 42.341 220.032 43.7153C221.705 45.8669 221.395 48.9843 219.516 50.8892L215.806 52.5978C218.269 53.6484 220.883 55.0996 221.031 58.1214C221.073 58.9731 220.51 59.7929 221.086 60.4296C225.14 63.3878 234.678 65.0486 231.964 71.8882C231.919 72.6284 234.617 73.6048 235.236 74.0584C237.765 70.2168 239.485 71.5248 242.768 73.1564C244.245 73.8913 245.796 74.8782 247.253 75.6821C247.181 73.5464 248.756 71.7556 250.963 72.3578L263.125 78.9852C265.303 81.3623 263.432 84.6283 260.197 83.7793C259.351 83.5591 253.593 79.9032 253.336 80.1923C253.416 81.8028 253.495 82.856 252.144 83.904C248.91 86.4138 246.145 82.2538 243.029 81.7815C243.09 83.1213 242.062 84.4824 240.926 85.1111C237.464 87.032 235.392 84.2383 232.35 83.1293C230.751 85.7558 228.674 87.0611 225.584 86.1591C223.811 85.6417 214.535 80.6036 213.031 79.3938C210.777 77.5817 210.481 75.4646 211.2 72.7584C210.946 72.3499 203.94 68.9592 202.777 68.1978C200.103 66.4441 198.895 63.7406 200.893 60.8382C202.164 58.9943 203.977 58.9306 206.03 58.8298C203.406 57.2884 200.002 56.3014 199.709 52.6933C199.468 49.7643 202.082 47.0873 204.971 47.2863C204.067 46.2861 202.547 45.92 201.53 45.0392C199.333 43.1422 198.937 39.9453 200.79 37.6504C201.884 36.2946 202.978 36.215 204.442 35.4801C203.472 34.7108 202.034 34.3499 201.141 33.4903C197.859 30.3226 199.862 24.7007 204.339 24.2232C206.945 23.9446 209.31 26.3483 211.683 27.1044C212.92 25.1544 214.807 24.2258 217.125 24.4699L213.56 22.3501C208.763 18.8666 212.236 11.7988 217.978 13.6693C218.977 13.9956 223.245 16.8317 223.716 16.4948L223.711 16.5054Z" fill="white"/>
<path d="M147.929 32.6386C149.975 34.3133 150.778 36.2188 148.735 38.3526L147.135 39.2709C147.464 39.2841 147.82 39.3266 148.118 39.4832C151.907 41.4816 155.646 43.6419 159.374 45.7598C161.104 48.0369 159.201 49.8336 156.594 48.8039C155.346 48.3102 146.37 43.4084 145.676 42.7237C144.289 41.3489 144.927 40.0087 146.338 39.0134C145.15 38.8356 143.957 38.119 142.878 37.5564C140.402 36.2639 135.629 34.0346 133.599 32.4927C131.946 31.2373 131.978 29.3451 132.786 27.5988C130.302 27.551 128.109 25.8206 126.008 24.6821C123.457 30.6429 118.421 28.1189 114.316 25.4783C111.313 30.9746 106.243 27.4608 102.314 25.2527C101.758 25.2022 100.815 26.7654 99.9911 27.0892C96.2047 28.5781 92.9204 24.2893 89.4767 23.6178C89.4607 25.3801 87.6034 26.3143 86.0117 25.8817C84.5981 25.4995 75.6726 20.6082 74.2377 19.5918C71.5593 17.6942 73.4193 13.7743 76.3927 14.4988C77.2217 14.7005 82.576 18.0737 82.8284 17.7765C82.7248 16.768 82.9639 15.9187 83.3997 15.0296C83.6282 14.5599 84.2792 14.3715 84.157 13.8009L73.6585 8.22755C71.3281 6.2875 72.9809 2.51358 75.7815 2.63035C76.956 2.68078 82.3129 6.12031 82.5627 5.83368C82.4272 2.6967 85.4484 0.679696 88.4191 1.44934C89.288 1.67493 93.0027 4.03164 93.3004 3.96264C96.5023 -1.87341 101.152 1.05125 105.531 3.4637C108.893 -1.84687 113.511 2.39681 117.489 4.25988C118.629 2.29861 120.358 1.36176 122.641 2.03321C123.993 2.43131 133.891 7.85334 135 8.79549C136.743 10.2817 136.873 12.4633 135.555 14.3104C133.039 17.8322 128.954 14.5413 126.241 13.0259C125.683 12.8614 125.258 14.4564 125.349 14.5785L132.388 18.3073C133.134 16.0939 134.343 15.1331 136.777 15.7807L148.732 22.4182C150.807 25.1863 148.509 28.2782 145.208 26.999C142.636 26.0037 139.732 23.7558 137.16 22.5616C136.589 22.4793 136.838 22.6199 136.777 22.957C136.549 24.2415 136.503 25.4278 135.441 26.4045C139.086 27.6386 142.365 29.9555 145.796 31.7177C146.492 32.0733 147.308 32.3255 147.927 32.6413C146.973 31.861 145.089 31.1285 145.006 29.8361C144.935 28.7081 146.067 27.8111 147.143 27.9783C151.331 30.1678 155.755 32.2034 159.589 34.929C160.447 36.2135 159.145 37.8908 157.695 37.6413C154.466 35.9163 151.187 34.3027 147.929 32.6439V32.6386ZM89.474 13.7849C90.6352 14.0132 91.8309 15.2658 92.9124 15.5392C93.388 15.6586 93.3987 15.6586 93.7202 15.2526C93.8105 14.7536 93.6458 14.6289 93.2897 14.3608C92.8672 14.0424 90.0666 12.5216 89.7504 12.7472L89.4713 13.7849H89.474Z" fill="white"/>
<path d="M546.812 24.3018C546.602 25.9223 544.612 27.7932 542.967 27.9961C539.842 28.3808 538.239 26.4045 535.557 25.3769C532.296 30.56 527.618 27.7352 523.588 25.3531C523.026 25.3505 521.916 27.0554 520.813 27.3426C517.122 28.3044 514.1 24.9315 510.861 23.7721C510.486 25.6272 508.833 26.4967 507 26.0224C505.514 25.6377 496.989 20.9368 495.416 19.8749C492.097 17.6325 494.259 13.5113 497.398 14.1964C498.446 14.4257 503.219 17.4322 503.556 17.1872L504.641 13.9197C501.879 12.0014 497.149 10.568 494.671 8.49159C492.192 6.41518 493.753 2.17806 497.056 2.41521C498.528 2.52061 502.567 5.45076 503.153 5.32955C503.967 3.57462 504.368 2.10955 506.406 1.43761C509.911 0.283471 511.542 2.64973 514.551 3.76434C515.424 2.0305 516.793 0.797301 518.812 0.586499C521.818 0.275566 523.896 2.4521 526.522 3.48767L526.907 3.36645C530.221 -1.44774 534.721 2.77094 538.457 4.55222L538.849 4.42047C539.871 2.65236 541.264 1.75118 543.365 2.294C544.769 2.65763 553.662 7.51926 555.119 8.53638C557.114 9.92768 557.931 12.0462 556.318 14.12C553.697 17.4928 549.643 13.8723 546.936 12.452L546.029 14.3967C546.167 15.0001 555.283 18.9632 556.621 20.7497C558.828 23.6983 556.432 27.6272 552.8 27.1819C551.534 27.0264 547.074 24.1068 546.809 24.3044L546.812 24.3018ZM514.702 15.34C514.798 14.4652 511.142 12.8078 510.991 12.9711C510.773 13.203 510.937 13.5904 511.322 13.8302C512.195 14.3756 513.689 15.037 514.702 15.34ZM537.257 14.8104C537.064 14.3203 536.406 13.9962 535.931 14.0251C536.124 14.5153 536.783 14.8394 537.257 14.8104Z" fill="white"/>
<path d="M448.697 5.851C448.777 4.45691 450.059 3.78099 451.381 4.12159C452.637 4.44635 461.434 9.20422 462.705 10.1178C464.725 11.5699 464.209 14.2684 461.945 14.2604C460.845 14.2578 455.158 10.5323 454.855 10.8676C455.018 12.8479 454.898 14.7383 452.979 15.7549C452.872 16.2803 453.118 16.0849 453.324 16.2116C455.109 17.3074 463.46 21.0091 464.019 22.287C465.023 24.5762 463.278 26.1894 460.938 25.5874C460.296 25.4211 455.637 22.4692 455.39 22.7491C455.407 24.4204 454.861 26.0336 453.52 27.1056L463.963 32.9038C465.751 35.4622 463.786 38.1897 460.748 37.1309C458.342 36.2913 452.275 32.8589 449.958 31.4093C448.317 30.3849 447.637 29.5136 448.151 27.5228L444.011 25.4211C442.346 27.7261 440.772 29.0779 437.711 28.4416C435.998 28.0852 427.434 23.3511 425.603 22.1682C420.21 18.6883 422.306 12.531 428.36 12.1851L424.61 9.94615C420.44 6.71175 423.609 0.343289 428.697 1.16179C430.158 1.39678 434.475 4.24305 434.919 4.20344C439.025 -1.70032 443.981 4.38562 448.694 5.851H448.697ZM448.7 16.1509L443.617 13.772C443.497 14.3185 443.904 14.3713 444.225 14.6222C444.589 14.9047 447.527 16.5575 447.825 16.6314C448.277 16.7423 448.571 16.5918 448.7 16.1509Z" fill="white"/>
<path d="M508.927 70.5684L514.535 73.2298C514.476 71.717 515.81 70.1749 517.143 69.5767C520.694 67.9868 522.866 70.4807 525.895 71.8685C529.497 66.2188 533.788 69.723 538.199 71.9084L538.538 71.8632C539.89 69.3374 542.618 69.3773 545.001 70.4275C547.226 71.4059 554.475 75.1999 556.193 76.5718C560.224 79.7889 556.946 85.9199 551.945 84.2555C550.43 83.7503 548.656 82.5592 547.261 81.743C544.536 87.6799 539.414 85.1488 535.228 82.5247L534.875 82.5699C531.656 87.9086 526.814 83.6387 522.9 81.7696L522.548 81.852C521.629 83.5749 520.133 84.1279 518.204 83.7982C515.831 83.3941 511.69 79.7038 509.593 79.3395C509.002 79.2385 509.243 79.3183 509.315 79.6267C509.67 81.1687 508.754 81.9477 507.207 81.7217C506.181 81.5729 497.516 76.8084 496.181 75.939C493.947 74.4847 494.265 72.2886 497.019 72.4402L504.914 76.6861C504.832 76.0002 504.316 75.6413 504.18 74.8968C503.79 72.7911 504.88 71.2304 506.79 70.4381C503.573 68.367 499.552 66.9021 496.389 64.8336C493.958 63.2437 493.664 61.0848 496.91 60.8375L508.754 67.152C510.389 68.4468 508.796 70.4328 508.925 70.5711L508.927 70.5684Z" fill="white"/>
<path d="M87.5437 70.1867L93.763 73.391C94.2079 71.2841 95.8131 69.407 98.0301 69.1373C100.79 68.8008 102.644 71.1426 105.121 71.8075C108.185 66.1519 113.006 69.3963 117.08 71.7114C118.741 69.9624 119.975 68.8969 122.579 69.4417C123.649 69.666 134.723 75.7568 135.616 76.5926C138.487 79.2869 136.948 84.2482 133.108 84.7609C130.493 85.1107 128.26 82.8063 125.956 81.9304C123.238 88.0667 118.153 84.5607 113.936 82.4431C110.583 87.5887 105.839 83.2843 101.971 81.3857L101.579 81.5192C98.4036 86.793 92.0307 79.6741 88.2006 78.4645C88.0655 78.4217 87.7688 78.3924 87.8086 78.5926C89.3846 79.6874 88.5555 81.9839 86.6405 81.6581L75.7038 75.8423C73.5053 74.7101 73.8576 72.0959 76.4878 72.3629L85.422 77.1213C83.0487 75.2815 83.2103 71.4524 86.3094 70.7154L86.4815 70.1867L75.2694 64.264C73.2563 63.0865 74.1463 60.4162 76.4878 60.8942C79.9682 62.9129 83.7983 64.507 87.1887 66.6673C88.8548 67.7274 89.713 69.0972 87.5437 70.1867Z" fill="white"/>
<path d="M514.747 38.6188C514.71 37.627 515.594 36.6826 516.342 36.1075C520.078 33.227 523.031 36.3107 526.461 37.8274C527.393 35.7303 529.786 34.5723 532.074 35.0445C533.331 35.303 544.826 41.415 545.768 42.3145C548.103 44.5409 547.776 48.5452 545.086 50.3416C541.534 52.7105 538.568 49.7771 535.402 48.3659C532.265 53.8843 527.1 50.1121 523.132 47.8567C519.998 53.2117 514.335 47.7987 510.618 46.0102C510.066 45.7913 510.205 46.9335 509.925 47.4294C509.403 48.35 508.189 48.5531 507.22 48.3236C503.761 46.2371 499.208 44.5831 495.925 42.3673C492.823 40.2728 494.687 37.0334 497.9 38.0385C498.665 38.2785 503.862 41.5179 504.097 41.2594C503.817 39.2176 504.342 37.9804 505.694 36.5164L495.179 30.9715C492.575 28.9061 494.553 25.3133 497.986 26.3447C499.248 26.7245 508.218 31.6706 509.515 32.5939C511.379 33.926 510.008 35.9967 510.335 36.5138L514.745 38.6241L514.747 38.6188Z" fill="white"/>
<path d="M88.9949 36.5895L93.7471 38.9853C94.5109 35.8564 97.2491 34.3211 100.368 35.1259C101.227 35.349 104.927 37.7104 105.223 37.6386C107.84 33.9041 110.293 34.2096 114.017 36.0157C116.107 37.0304 123.289 40.7198 124.682 42.0319C126.606 43.8461 127.05 46.7545 125.469 48.9405C122.287 53.3418 118.063 50.4253 114.498 48.3403C110.626 53.5011 106.288 49.8489 102.075 47.485C98.8984 53.0204 93.2502 46.9564 89.3913 45.3601C89.2671 47.2911 88.3209 48.4359 86.2751 47.9578C84.3854 46.4916 74.7937 42.4383 74.0695 40.8366C73.3453 39.235 74.717 37.7475 76.4429 37.9096C77.7063 38.0291 83.5924 41.9496 83.973 41.6361C82.855 39.4714 83.9942 38.0822 85.2946 36.4646L74.7355 30.5998C72.3832 28.8096 74.0457 25.4575 76.9081 26.2942C80.3071 28.4298 84.869 30.0872 88.12 32.2918C90.8503 34.1431 88.7861 36.3053 88.9949 36.5895Z" fill="white"/>
<path d="M183.19 47.0903L182.682 48.5562L182.916 48.8085C186.134 50.787 189.824 52.298 193.048 54.2154C195.384 55.6069 196.842 56.3186 196.344 59.4231C196.027 61.4042 193.489 62.8887 191.574 62.3124L178.632 55.4396C176.476 53.4532 176.917 50.2532 179.417 48.8165C177.699 47.3665 168.358 43.5052 167.731 42.0393C166.984 40.2919 168.196 38.6295 170.119 38.8632C171.09 38.9827 176.742 42.5917 177 42.3076C176.538 37.8966 179.549 35.6844 183.69 37.4292C186.102 38.4463 193.026 42.042 195 43.5212C198.942 46.4689 196.057 52.452 191.243 51.2119C190.076 50.9118 183.521 46.7823 183.187 47.0877L183.19 47.0903Z" fill="white"/>
<path d="M183.62 14.4814C183.886 14.9403 191.697 18.7279 192.955 19.5007C195.78 21.2363 198.273 23.4783 195.895 27.0206C192.865 31.5309 186.758 26.377 183.43 24.8235C181.94 28.2682 179.592 26.4139 177.241 25.2217C174.891 24.0295 170.755 22.0223 168.736 20.5558C167.525 19.6775 166.84 18.6277 167.664 17.1928C169.66 13.7112 173.969 18.3376 176.457 19.0154C176.315 17.2588 177.205 16.0613 178.042 14.6686C176.044 13.1283 168.444 10.2823 167.398 8.44386C165.982 5.95659 168.328 3.56691 171.076 4.49535C172.55 4.99386 181.472 9.8629 182.649 10.8362C184.241 12.1523 183.159 13.6822 183.623 14.4787L183.62 14.4814Z" fill="white"/>
<path d="M235.655 6.98836C235.957 4.5474 237.623 3.64166 239.968 4.12773C243.412 6.36152 248.248 8.00565 251.48 10.3802C253.107 11.5755 253.897 13.464 252.469 15.209C251.865 15.9474 250.932 15.7615 251.025 16.545L262.67 22.8028C264.662 24.7604 262.908 27.4138 260.288 26.5161C257.198 24.2239 251.621 22.5611 248.81 20.2264C247.922 19.488 247.819 17.9979 248.505 17.0789C248.828 16.6486 249.382 16.715 249.43 16.2847L242.673 12.8291C242.475 14.1227 242.257 15.2542 241.224 16.1546C238.855 18.2237 236.603 16.4919 234.322 15.3551C232.04 14.2183 226.635 11.5489 224.963 10.1279C221.728 7.38412 224.336 2.23658 228.771 3.38933C229.852 3.67088 235.355 7.23804 235.649 6.98305L235.655 6.98836Z" fill="white"/>
<path d="M144.692 64.7037C144.283 58.8113 150.513 63.298 153.112 64.6588C154.162 65.2084 159.284 67.8587 159.706 68.4083C160.86 69.9197 160.025 72.1234 158.12 72.1313C156.214 72.1393 151.985 68.942 150.013 68.1388C150.534 69.8774 150.308 72.1974 148.416 72.9002L159.826 79.3872C161.771 81.797 159.624 84.6401 156.724 83.5277C153.705 81.1998 147.969 79.5748 145.237 77.2469C144.092 76.2719 143.879 74.6547 144.926 73.508L144.847 73.1565C141.471 71.0242 137.522 69.4679 134.152 67.3963C132.368 66.2997 131.257 64.9733 131.999 62.788C134.064 56.716 141.33 63.5385 144.69 64.709L144.692 64.7037Z" fill="white"/>
<path d="M5.03418 69.3919C5.95032 69.2998 6.68948 69.5525 7.52493 69.8973C9.26872 70.6106 18.4457 75.6329 19.5285 76.7095C22.5762 79.7365 19.7679 85.2958 15.2835 84.1587C13.7635 83.7744 4.04516 78.4547 2.73862 77.3702C-0.379382 74.7853 1.13537 69.7815 5.03418 69.3919Z" fill="white"/>
<path d="M449.384 70.0142C450.314 69.8248 451.439 69.8915 452.355 70.1609C453.615 70.529 463.723 76.0298 464.723 76.8968C468.086 79.81 465.396 84.9506 461.344 84.2437C460.052 84.0196 449.536 78.4254 448.241 77.4224C445.505 75.3042 446.1 70.6838 449.382 70.0142H449.384Z" fill="white"/>
<path d="M450.034 58.7683C451.177 58.5752 451.836 58.8361 452.849 59.2639C454.879 60.1221 462.78 64.2567 464.262 65.4932C467.445 68.1513 464.994 72.9094 460.671 71.9025C459.459 71.6207 450.058 66.5288 448.799 65.608C445.962 63.5315 446.684 59.3369 450.037 58.7709L450.034 58.7683Z" fill="white"/>
<path d="M180.128 60.4063C180.968 60.2342 181.943 60.2785 182.764 60.5445C184.058 60.9644 193.248 65.998 194.286 66.8717C197.558 69.6284 195.016 74.1795 190.854 72.8781C189.458 72.4426 180.054 67.3881 178.895 66.4622C176.774 64.7722 177.446 60.9514 180.13 60.4037L180.128 60.4063Z" fill="white"/>
<path d="M449.888 48.1308C450.724 47.9549 451.426 48.0296 452.238 48.2748C453.567 48.6799 462.586 53.6776 463.784 54.6131C466.675 56.868 464.789 61.7777 460.714 60.6796C459.648 60.3917 449.818 54.9649 448.823 54.16C446.817 52.5421 447.267 48.6826 449.891 48.1282L449.888 48.1308Z" fill="white"/>
<path d="M180.953 78.6109C181.304 79.3102 182.194 79.2735 182.675 79.923C183.862 81.5284 182.491 83.3067 180.621 83.0108L168.744 76.631C167.181 75.4054 168.441 72.9671 170.338 73.2186L179.893 78.0793C176.925 75.8663 178.198 71.6184 182.133 72.0741L194.06 78.3883C197.102 80.308 195.851 84.2155 192.306 84.3098L180.953 78.6083V78.6109Z" fill="white"/>
<path d="M450.223 36.9008C450.794 36.8044 451.311 36.7723 451.841 37.0533L464.073 43.6842C466.58 45.8812 464.454 49.6194 461.373 49.0414L448.682 42.3195C446.669 40.5106 447.527 37.353 450.226 36.9008H450.223Z" fill="white"/>
<path d="M38.5268 37.4612C39.2168 37.3053 40.0112 37.329 40.6692 37.6091C42.7661 39.2658 52.0283 42.8512 53.0125 44.7008C54.2081 46.9519 51.9855 49.2506 49.5569 48.3787C46.5319 46.043 40.5274 44.3388 37.8127 42.0163C36.24 40.6688 36.5422 37.9077 38.5268 37.4612Z" fill="white"/>
<path d="M284.481 37.4462C285.209 37.2781 285.637 37.3928 286.319 37.5983C287.506 37.9586 296.248 42.8181 297.386 43.6774C300.047 45.6895 298.471 49.3561 295.348 48.4168C293.959 47.9978 285.068 43.0369 283.783 42.0442C282.095 40.7392 282.53 37.8918 284.481 37.4435V37.4462Z" fill="white"/>
<path d="M249.626 61.4593C250.409 61.2853 250.997 61.3866 251.746 61.6048C252.864 61.9321 261.879 66.743 262.924 67.5223C265.286 69.2809 263.674 72.6942 260.814 71.9305L248.919 65.6779C247.563 64.6311 247.818 61.8646 249.626 61.4593Z" fill="white"/>
<path d="M284.508 49.1697C285.146 49.0368 285.543 49.1032 286.138 49.3204C289.881 50.6849 294.056 53.8814 297.884 55.3915C299.81 56.8863 298.237 59.9116 295.57 59.1016C294.108 58.657 284.959 53.9785 283.785 53.0663C282.117 51.7683 282.492 49.5913 284.508 49.1722V49.1697Z" fill="white"/>
<path d="M496.706 49.1013C497.345 49.1013 498.605 49.8495 499.249 50.1581C502.593 51.7616 505.731 53.8596 509.114 55.4055C511.085 57.0012 509.448 59.9833 506.978 59.0651L495.251 52.7661C493.75 51.4059 494.719 49.1013 496.706 49.1039V49.1013Z" fill="white"/>
<path d="M284.756 60.9058C285.3 60.7911 285.82 60.809 286.327 61.051L297.474 67.0082C299.151 68.5676 297.731 71.0621 295.413 70.2977C294.111 69.8696 285.067 65.0972 284.052 64.2844C282.737 63.227 283.152 61.2447 284.756 60.9058Z" fill="white"/>
<path d="M260.84 62.0049C261.445 61.8317 262.161 61.8963 262.76 62.0927C264.367 62.6173 272.235 66.8736 273.739 67.9305C275.804 69.3829 274.367 72.1066 272.047 71.3882C270.41 70.2176 260.495 65.8709 259.994 64.7881C259.594 63.9249 259.769 62.3124 260.84 62.0049Z" fill="white"/>
<path d="M75.6876 49.1168C76.4988 48.953 78.3678 50.1352 79.2082 50.572C81.4961 51.7624 86.0375 54.0503 87.933 55.511C90.2527 57.2993 88.7973 59.9641 86.0825 59.0522C83.1478 56.6987 77.6441 55.096 74.9718 52.748C73.6356 51.574 73.975 49.4581 75.6876 49.1141V49.1168Z" fill="white"/>
<path d="M461.55 15.5878C462.186 15.4026 462.82 15.5095 463.427 15.7364C465.213 16.4068 473.004 20.5617 474.445 21.6807C476.285 23.11 474.921 25.567 472.913 25.0166L461.098 18.7881C459.934 18.0265 460.242 15.9686 461.547 15.5878H461.55Z" fill="white"/>
<path d="M50.3422 37.9662C51.0075 37.8202 51.3296 37.9291 51.9391 38.1202C55.4071 39.2115 59.6309 42.8039 63.1788 44.1633C65.0232 45.6847 63.554 48.1407 61.3183 47.3468L49.8924 41.2214C48.6867 40.3638 48.8064 38.3034 50.3422 37.9662Z" fill="white"/>
<path d="M381.938 44.3606C383.441 46.0103 381.621 48.1245 379.609 47.3274C376.5 45.0257 371.365 43.5265 368.45 41.2274C366.521 39.7044 367.971 37.218 370.308 38.0732L381.938 44.3632V44.3606Z" fill="white"/>
<path d="M284.841 72.0548C285.298 71.9845 285.663 72.1824 286.064 72.3412C289.864 73.8516 293.785 76.7683 297.621 78.4037C298.957 79.9271 297.872 82.1745 295.733 81.5287L283.851 75.2527C282.715 74.2397 283.348 72.2839 284.841 72.0574V72.0548Z" fill="white"/>
<path d="M274.157 59.8165C273.371 60.5895 272.51 60.2966 271.641 59.9378C269.025 58.8588 264.05 56.0965 261.589 54.5611C260.771 54.0519 259.728 53.5137 259.8 52.3898C259.873 51.2659 261.273 50.2581 262.345 50.9045C265.71 52.8832 269.696 54.4767 272.975 56.5107C274.167 57.2495 275.533 58.4551 274.157 59.8138V59.8165Z" fill="white"/>
<path d="M170.703 11.8454C172.085 13.4249 170.573 15.446 168.705 14.8544L157.999 8.77222C155.785 7.42835 157.001 4.79148 159.388 5.46609L170.706 11.8454H170.703Z" fill="white"/>
<path d="M370.869 78.5674C371.965 79.8959 370.772 82.303 368.918 81.472L357.431 75.3831C355.364 73.8743 356.465 71.4672 359.047 72.1638L370.869 78.5674Z" fill="white"/>
<path d="M461.875 4.29651C462.454 4.21066 463.957 5.09186 464.572 5.38728C466.945 6.52856 471.753 8.79595 473.714 10.2074C475.867 11.7552 474.453 13.9064 472.148 13.2323C469.095 11.028 464.041 9.59636 461.179 7.39461C459.783 6.32151 460.327 4.52375 461.875 4.29398V4.29651Z" fill="white"/>
<path d="M50.4282 26.7299C50.8131 26.6602 51.1348 26.6897 51.4748 26.8933L62.6051 33.001C64.2818 34.1342 63.3907 36.7996 61.3028 36.2156C58.0233 34.027 53.0065 32.3662 49.9853 30.0222C48.6567 28.9908 48.7727 27.0246 50.4309 26.7299H50.4282Z" fill="white"/>
<path d="M369.232 49.6979C369.693 49.5684 370.131 49.6471 370.55 49.8527L381.687 55.631C383.309 56.8649 382.283 58.9036 380.379 58.6878L369.213 52.912C367.7 52.3027 367.726 50.1142 369.229 49.6979H369.232Z" fill="white"/>
<path d="M146.936 16.6178C147.403 16.5207 147.835 16.5288 148.259 16.7796C151.308 19.1174 156.312 20.6059 159.186 22.9249C160.92 24.3244 159.799 26.7594 157.746 26.0286C154.153 24.7505 150.041 21.2639 146.382 19.77C145.239 18.8451 145.401 16.936 146.938 16.6178H146.936Z" fill="white"/>
<path d="M261.365 16.6259C261.925 16.4636 262.204 16.634 262.693 16.7908C264.379 17.3289 272.164 21.7012 273.738 22.845C275.775 24.3241 274.344 26.6684 272.453 26.0654C269.118 23.9617 264.966 22.3664 261.726 20.2086C261.429 20.0112 260.786 19.6705 260.624 19.438C260.043 18.6133 260.332 16.9287 261.365 16.6259Z" fill="white"/>
<path d="M261.36 39.5807C261.946 39.4129 262.407 39.5239 262.953 39.7303C264.753 40.4115 272.427 44.4885 273.874 45.611C275.679 47.0095 274.386 49.11 272.294 48.4391L260.419 41.9391C260.172 41.0953 260.411 39.8542 261.36 39.5807Z" fill="white"/>
<path d="M157.251 42.3043C156.098 40.9386 157.532 38.8874 159.299 39.673C160.942 40.9309 170.74 45.1051 171.145 46.4093C171.611 47.9085 170.272 48.9764 168.809 48.4168L157.251 42.3043Z" fill="white"/>
<path d="M369.217 72.1065C369.77 71.9427 370.058 72.1147 370.539 72.273C373.939 73.3788 378.214 77.1112 381.712 78.4872C383.368 79.8742 382.18 82.2742 380.127 81.4879L368.767 75.1945C367.637 74.4518 368.013 72.4669 369.217 72.1065Z" fill="white"/>
<path d="M473.101 15.5922C473.69 15.4142 474.4 15.4826 474.96 15.7482C477.916 18.1086 483.152 19.6365 485.893 21.9777C487.301 23.1798 486.132 25.6114 484.31 24.998L472.979 18.6124C471.813 18.0292 471.797 15.9837 473.101 15.5894V15.5922Z" fill="white"/>
<path d="M473.055 4.36864C473.58 4.214 474.165 4.30163 474.66 4.52328L485.903 10.3868C487.292 11.4899 486.135 13.9617 484.306 13.2245L472.88 7.27593C471.77 6.67282 471.897 4.70885 473.055 4.36864Z" fill="white"/>
<path d="M49.4507 15.8446C49.8464 15.435 50.9937 15.4103 51.5195 15.633L62.7613 21.8648C64.2724 23.1101 63.218 25.5952 61.3351 25.0069L50.096 18.7558C49.0603 18.3792 48.7602 16.5566 49.4507 15.8446Z" fill="white"/>
<path d="M157.858 73.721C158.395 73.5681 158.953 73.6407 159.455 73.8738L170.519 79.6652C172.031 80.8411 170.974 83.18 169.092 82.6257L157.011 76.0002C156.583 75.2129 156.968 73.98 157.861 73.7236L157.858 73.721Z" fill="white"/>
<path d="M369.419 60.8717C369.807 60.8005 370.132 60.8334 370.474 61.0386L381.806 67.4359C383.377 68.793 382.019 71.0696 380.11 70.2761L368.699 63.9663C367.647 63.1126 368.003 61.1261 369.419 60.8689V60.8717Z" fill="white"/>
<path d="M260.224 31.0566C259.116 29.7841 260.317 27.8481 262.071 28.3898L273.88 34.3791C275.667 35.7759 274.424 37.9322 272.233 37.2273L260.224 31.0566Z" fill="white"/>
</svg>
